<svg xmlns="http://www.w3.org/2000/svg" xmlns:xlink="http://www.w3.org/1999/xlink" width="236" zoomAndPan="magnify" viewBox="0 0 177 177.000001" height="236" preserveAspectRatio="xMidYMid meet" version="1.2"><defs><clipPath id="9eae7ccca3"><path d="M 25 25 L 151 25 L 151 151 L 25 151 Z M 25 25 "/></clipPath><clipPath id="7be18f2f40"><path d="M 97.582031 0 L 175.8125 96.914062 L 78.898438 175.140625 L 0.667969 78.230469 Z M 97.582031 0 "/></clipPath><clipPath id="10733b1667"><path d="M 97.582031 0 L 175.949219 97.085938 L 78.867188 175.453125 L 0.496094 78.367188 Z M 97.582031 0 "/></clipPath><clipPath id="8a1817de1b"><path d="M 136.765625 48.542969 C 115.125 21.734375 75.847656 17.542969 49.039062 39.183594 C 22.230469 60.824219 18.039062 100.101562 39.679688 126.910156 C 61.320312 153.71875 100.597656 157.910156 127.40625 136.269531 C 154.21875 114.628906 158.40625 75.351562 136.765625 48.542969 Z M 136.765625 48.542969 "/></clipPath><linearGradient x1="32" gradientTransform="matrix(2.614014,-0.0000000124211,0.0000000124211,2.614014,-0.00000279544,-0.00000134502)" y1="-18.625345" x2="32" gradientUnits="userSpaceOnUse" y2="82.625344" id="86114e5ead"><stop style="stop-color:#81bfe7;stop-opacity:1;" offset="0"/><stop style="stop-color:#81bfe7;stop-opacity:1;" offset="0.125"/><stop style="stop-color:#81bfe7;stop-opacity:1;" offset="0.1875"/><stop style="stop-color:#80bde6;stop-opacity:1;" offset="0.191406"/><stop style="stop-color:#7fbce5;stop-opacity:1;" offset="0.195312"/><stop style="stop-color:#7fbce4;stop-opacity:1;" offset="0.199219"/><stop style="stop-color:#7ebbe3;stop-opacity:1;" offset="0.203125"/><stop style="stop-color:#7ebae3;stop-opacity:1;" offset="0.207031"/><stop style="stop-color:#7db9e2;stop-opacity:1;" offset="0.210937"/><stop style="stop-color:#7db8e1;stop-opacity:1;" offset="0.214844"/><stop style="stop-color:#7cb7e0;stop-opacity:1;" offset="0.21875"/><stop style="stop-color:#7bb6e0;stop-opacity:1;" offset="0.222656"/><stop style="stop-color:#7bb5df;stop-opacity:1;" offset="0.226562"/><stop style="stop-color:#7ab5de;stop-opacity:1;" offset="0.230469"/><stop style="stop-color:#7ab4dd;stop-opacity:1;" offset="0.234375"/><stop style="stop-color:#79b3dd;stop-opacity:1;" offset="0.238281"/><stop style="stop-color:#79b2dc;stop-opacity:1;" offset="0.242188"/><stop style="stop-color:#78b1db;stop-opacity:1;" offset="0.246094"/><stop style="stop-color:#77b0da;stop-opacity:1;" offset="0.25"/><stop style="stop-color:#77afda;stop-opacity:1;" offset="0.253906"/><stop style="stop-color:#76aed9;stop-opacity:1;" offset="0.257812"/><stop style="stop-color:#76aed8;stop-opacity:1;" offset="0.261719"/><stop style="stop-color:#75add7;stop-opacity:1;" offset="0.265625"/><stop style="stop-color:#75acd6;stop-opacity:1;" offset="0.269531"/><stop style="stop-color:#74abd6;stop-opacity:1;" offset="0.273438"/><stop style="stop-color:#73aad5;stop-opacity:1;" offset="0.277344"/><stop style="stop-color:#73a9d4;stop-opacity:1;" offset="0.28125"/><stop style="stop-color:#72a8d3;stop-opacity:1;" offset="0.285156"/><stop style="stop-color:#72a7d3;stop-opacity:1;" offset="0.289062"/><stop style="stop-color:#71a7d2;stop-opacity:1;" offset="0.292969"/><stop style="stop-color:#71a6d1;stop-opacity:1;" offset="0.296875"/><stop style="stop-color:#70a5d0;stop-opacity:1;" offset="0.300781"/><stop style="stop-color:#6fa4d0;stop-opacity:1;" offset="0.304688"/><stop style="stop-color:#6fa3cf;stop-opacity:1;" offset="0.308594"/><stop style="stop-color:#6ea2ce;stop-opacity:1;" offset="0.3125"/><stop style="stop-color:#6ea1cd;stop-opacity:1;" offset="0.316406"/><stop style="stop-color:#6da0cd;stop-opacity:1;" offset="0.320312"/><stop style="stop-color:#6d9fcc;stop-opacity:1;" offset="0.324219"/><stop style="stop-color:#6c9fcb;stop-opacity:1;" offset="0.328125"/><stop style="stop-color:#6b9eca;stop-opacity:1;" offset="0.332031"/><stop style="stop-color:#6b9dca;stop-opacity:1;" offset="0.335937"/><stop style="stop-color:#6a9cc9;stop-opacity:1;" offset="0.339844"/><stop style="stop-color:#6a9bc8;stop-opacity:1;" offset="0.34375"/><stop style="stop-color:#699ac7;stop-opacity:1;" offset="0.347656"/><stop style="stop-color:#6999c7;stop-opacity:1;" offset="0.351562"/><stop style="stop-color:#6898c6;stop-opacity:1;" offset="0.355469"/><stop style="stop-color:#6798c5;stop-opacity:1;" offset="0.359375"/><stop style="stop-color:#6797c4;stop-opacity:1;" offset="0.363281"/><stop style="stop-color:#6696c4;stop-opacity:1;" offset="0.367187"/><stop style="stop-color:#6695c3;stop-opacity:1;" offset="0.371094"/><stop style="stop-color:#6594c2;stop-opacity:1;" offset="0.375"/><stop style="stop-color:#6593c1;stop-opacity:1;" offset="0.378906"/><stop style="stop-color:#6492c1;stop-opacity:1;" offset="0.382812"/><stop style="stop-color:#6391c0;stop-opacity:1;" offset="0.386719"/><stop style="stop-color:#6391bf;stop-opacity:1;" offset="0.390625"/><stop style="stop-color:#6290be;stop-opacity:1;" offset="0.394531"/><stop style="stop-color:#628fbe;stop-opacity:1;" offset="0.398438"/><stop style="stop-color:#618ebd;stop-opacity:1;" offset="0.402344"/><stop style="stop-color:#618dbc;stop-opacity:1;" offset="0.40625"/><stop style="stop-color:#608cbb;stop-opacity:1;" offset="0.410156"/><stop style="stop-color:#608bbb;stop-opacity:1;" offset="0.414062"/><stop style="stop-color:#5f8aba;stop-opacity:1;" offset="0.417969"/><stop style="stop-color:#5e8ab9;stop-opacity:1;" offset="0.421875"/><stop style="stop-color:#5e89b8;stop-opacity:1;" offset="0.425781"/><stop style="stop-color:#5d88b8;stop-opacity:1;" offset="0.429687"/><stop style="stop-color:#5d87b7;stop-opacity:1;" offset="0.433594"/><stop style="stop-color:#5c86b6;stop-opacity:1;" offset="0.4375"/><stop style="stop-color:#5c85b5;stop-opacity:1;" offset="0.441406"/><stop style="stop-color:#5b84b5;stop-opacity:1;" offset="0.445312"/><stop style="stop-color:#5a83b4;stop-opacity:1;" offset="0.449219"/><stop style="stop-color:#5a83b3;stop-opacity:1;" offset="0.453125"/><stop style="stop-color:#5982b2;stop-opacity:1;" offset="0.457031"/><stop style="stop-color:#5981b2;stop-opacity:1;" offset="0.460937"/><stop style="stop-color:#5880b1;stop-opacity:1;" offset="0.464844"/><stop style="stop-color:#587fb0;stop-opacity:1;" offset="0.46875"/><stop style="stop-color:#577eaf;stop-opacity:1;" offset="0.472656"/><stop style="stop-color:#567daf;stop-opacity:1;" offset="0.476562"/><stop style="stop-color:#567cae;stop-opacity:1;" offset="0.480469"/><stop style="stop-color:#557cad;stop-opacity:1;" offset="0.484375"/><stop style="stop-color:#557bac;stop-opacity:1;" offset="0.488281"/><stop style="stop-color:#547aac;stop-opacity:1;" offset="0.492188"/><stop style="stop-color:#5479ab;stop-opacity:1;" offset="0.496094"/><stop style="stop-color:#5378aa;stop-opacity:1;" offset="0.5"/><stop style="stop-color:#5277a9;stop-opacity:1;" offset="0.503906"/><stop style="stop-color:#5276a8;stop-opacity:1;" offset="0.507812"/><stop style="stop-color:#5175a8;stop-opacity:1;" offset="0.511719"/><stop style="stop-color:#5174a7;stop-opacity:1;" offset="0.515625"/><stop style="stop-color:#5074a6;stop-opacity:1;" offset="0.519531"/><stop style="stop-color:#5073a5;stop-opacity:1;" offset="0.523438"/><stop style="stop-color:#4f72a5;stop-opacity:1;" offset="0.527344"/><stop style="stop-color:#4e71a4;stop-opacity:1;" offset="0.53125"/><stop style="stop-color:#4e70a3;stop-opacity:1;" offset="0.535156"/><stop style="stop-color:#4d6fa2;stop-opacity:1;" offset="0.539062"/><stop style="stop-color:#4d6ea2;stop-opacity:1;" offset="0.542969"/><stop style="stop-color:#4c6da1;stop-opacity:1;" offset="0.546875"/><stop style="stop-color:#4c6da0;stop-opacity:1;" offset="0.550781"/><stop style="stop-color:#4b6c9f;stop-opacity:1;" offset="0.554688"/><stop style="stop-color:#4a6b9f;stop-opacity:1;" offset="0.558594"/><stop style="stop-color:#4a6a9e;stop-opacity:1;" offset="0.5625"/><stop style="stop-color:#49699d;stop-opacity:1;" offset="0.566406"/><stop style="stop-color:#49689c;stop-opacity:1;" offset="0.570312"/><stop style="stop-color:#48679c;stop-opacity:1;" offset="0.574219"/><stop style="stop-color:#48669b;stop-opacity:1;" offset="0.578125"/><stop style="stop-color:#47669a;stop-opacity:1;" offset="0.582031"/><stop style="stop-color:#466599;stop-opacity:1;" offset="0.585938"/><stop style="stop-color:#466499;stop-opacity:1;" offset="0.589844"/><stop style="stop-color:#456398;stop-opacity:1;" offset="0.59375"/><stop style="stop-color:#456297;stop-opacity:1;" offset="0.597656"/><stop style="stop-color:#446196;stop-opacity:1;" offset="0.601562"/><stop style="stop-color:#446096;stop-opacity:1;" offset="0.605469"/><stop style="stop-color:#435f95;stop-opacity:1;" offset="0.609375"/><stop style="stop-color:#435f94;stop-opacity:1;" offset="0.613281"/><stop style="stop-color:#425e93;stop-opacity:1;" offset="0.617188"/><stop style="stop-color:#415d93;stop-opacity:1;" offset="0.621094"/><stop style="stop-color:#415c92;stop-opacity:1;" offset="0.625"/><stop style="stop-color:#405b91;stop-opacity:1;" offset="0.628906"/><stop style="stop-color:#405a90;stop-opacity:1;" offset="0.632812"/><stop style="stop-color:#3f5990;stop-opacity:1;" offset="0.636719"/><stop style="stop-color:#3f588f;stop-opacity:1;" offset="0.640625"/><stop style="stop-color:#3e588e;stop-opacity:1;" offset="0.644531"/><stop style="stop-color:#3d578d;stop-opacity:1;" offset="0.648437"/><stop style="stop-color:#3d568d;stop-opacity:1;" offset="0.652344"/><stop style="stop-color:#3c558c;stop-opacity:1;" offset="0.65625"/><stop style="stop-color:#3c548b;stop-opacity:1;" offset="0.660156"/><stop style="stop-color:#3b538a;stop-opacity:1;" offset="0.664062"/><stop style="stop-color:#3b528a;stop-opacity:1;" offset="0.667969"/><stop style="stop-color:#3a5189;stop-opacity:1;" offset="0.671875"/><stop style="stop-color:#395188;stop-opacity:1;" offset="0.675781"/><stop style="stop-color:#395087;stop-opacity:1;" offset="0.679687"/><stop style="stop-color:#384f87;stop-opacity:1;" offset="0.683594"/><stop style="stop-color:#384e86;stop-opacity:1;" offset="0.6875"/><stop style="stop-color:#374d85;stop-opacity:1;" offset="0.691406"/><stop style="stop-color:#374c84;stop-opacity:1;" offset="0.695312"/><stop style="stop-color:#364b84;stop-opacity:1;" offset="0.699219"/><stop style="stop-color:#354a83;stop-opacity:1;" offset="0.703125"/><stop style="stop-color:#354982;stop-opacity:1;" offset="0.707031"/><stop style="stop-color:#344981;stop-opacity:1;" offset="0.710938"/><stop style="stop-color:#344881;stop-opacity:1;" offset="0.714844"/><stop style="stop-color:#334780;stop-opacity:1;" offset="0.71875"/><stop style="stop-color:#33467f;stop-opacity:1;" offset="0.722656"/><stop style="stop-color:#32457e;stop-opacity:1;" offset="0.726562"/><stop style="stop-color:#31447e;stop-opacity:1;" offset="0.730469"/><stop style="stop-color:#31437d;stop-opacity:1;" offset="0.734375"/><stop style="stop-color:#30427c;stop-opacity:1;" offset="0.738281"/><stop style="stop-color:#30427b;stop-opacity:1;" offset="0.742187"/><stop style="stop-color:#2f417b;stop-opacity:1;" offset="0.746094"/><stop style="stop-color:#2f407a;stop-opacity:1;" offset="0.75"/><stop style="stop-color:#2e3f79;stop-opacity:1;" offset="0.753906"/><stop style="stop-color:#2d3e78;stop-opacity:1;" offset="0.757812"/><stop style="stop-color:#2d3d77;stop-opacity:1;" offset="0.761719"/><stop style="stop-color:#2c3c77;stop-opacity:1;" offset="0.765625"/><stop style="stop-color:#2c3b76;stop-opacity:1;" offset="0.769531"/><stop style="stop-color:#2b3b75;stop-opacity:1;" offset="0.773437"/><stop style="stop-color:#2b3a74;stop-opacity:1;" offset="0.777344"/><stop style="stop-color:#2a3974;stop-opacity:1;" offset="0.78125"/><stop style="stop-color:#293873;stop-opacity:1;" offset="0.785156"/><stop style="stop-color:#293772;stop-opacity:1;" offset="0.789062"/><stop style="stop-color:#283671;stop-opacity:1;" offset="0.792969"/><stop style="stop-color:#283571;stop-opacity:1;" offset="0.796875"/><stop style="stop-color:#273470;stop-opacity:1;" offset="0.800781"/><stop style="stop-color:#27346f;stop-opacity:1;" offset="0.804687"/><stop style="stop-color:#26336e;stop-opacity:1;" offset="0.808594"/><stop style="stop-color:#26326e;stop-opacity:1;" offset="0.8125"/><stop style="stop-color:#25316d;stop-opacity:1;" offset="0.875"/><stop style="stop-color:#25316d;stop-opacity:1;" offset="1"/></linearGradient><clipPath id="f0c3cee87a"><path d="M 107 26 L 145 26 L 145 64 L 107 64 Z M 107 26 "/></clipPath><clipPath id="0e8e0cffd2"><path d="M 107.269531 46.960938 L 123.628906 26.703125 L 144.308594 43.402344 L 127.949219 63.660156 Z M 107.269531 46.960938 "/></clipPath><clipPath id="9f5fe05588"><path d="M 0.175781 0.492188 L 37.402344 0.492188 L 37.402344 37.71875 L 0.175781 37.71875 Z M 0.175781 0.492188 "/></clipPath><clipPath id="ec37cc96d2"><path d="M 0.269531 20.960938 L 16.628906 0.703125 L 37.308594 17.402344 L 20.949219 37.660156 Z M 0.269531 20.960938 "/></clipPath><clipPath id="38d336b8de"><rect x="0" width="38" y="0" height="38"/></clipPath><clipPath id="fb4029fc8a"><path d="M 115 34 L 137 34 L 137 56 L 115 56 Z M 115 34 "/></clipPath><clipPath id="5beca96c23"><path d="M 114.25 55.058594 L 115.917969 33.496094 L 137.484375 35.167969 L 135.8125 56.730469 Z M 114.25 55.058594 "/></clipPath><clipPath id="43df6f030e"><path d="M 114.25 55.058594 L 115.90625 33.648438 L 137.320312 35.308594 L 135.660156 56.71875 Z M 114.25 55.058594 "/></clipPath><clipPath id="4d463ba53b"><path d="M 115.078125 44.355469 C 114.621094 50.265625 119.042969 55.429688 124.953125 55.890625 C 130.867188 56.347656 136.03125 51.925781 136.488281 46.015625 C 136.949219 40.101562 132.527344 34.9375 126.613281 34.476562 C 120.699219 34.019531 115.535156 38.441406 115.078125 44.355469 Z M 115.078125 44.355469 "/></clipPath><linearGradient x1="32" gradientTransform="matrix(0.449951,-0.00000000166578,0.00000000166578,0.449951,0.00000553838,-0.00000261398)" y1="-3.741832" x2="32" gradientUnits="userSpaceOnUse" y2="67.741854" id="a1e29477de"><stop style="stop-color:#81bfe7;stop-opacity:1;" offset="0"/><stop style="stop-color:#81bfe7;stop-opacity:1;" offset="0.03125"/><stop style="stop-color:#81bfe7;stop-opacity:1;" offset="0.046875"/><stop style="stop-color:#81bfe7;stop-opacity:1;" offset="0.0546875"/><stop style="stop-color:#80bee6;stop-opacity:1;" offset="0.0585938"/><stop style="stop-color:#80bde6;stop-opacity:1;" offset="0.0625"/><stop style="stop-color:#80bde5;stop-opacity:1;" offset="0.0664062"/><stop style="stop-color:#7fbce5;stop-opacity:1;" offset="0.0703125"/><stop style="stop-color:#7fbce4;stop-opacity:1;" offset="0.0742188"/><stop style="stop-color:#7ebbe3;stop-opacity:1;" offset="0.078125"/><stop style="stop-color:#7ebae3;stop-opacity:1;" offset="0.0820312"/><stop style="stop-color:#7ebae2;stop-opacity:1;" offset="0.0859375"/><stop style="stop-color:#7db9e2;stop-opacity:1;" offset="0.0898438"/><stop style="stop-color:#7db8e1;stop-opacity:1;" offset="0.09375"/><stop style="stop-color:#7cb8e1;stop-opacity:1;" offset="0.0976562"/><stop style="stop-color:#7cb7e0;stop-opacity:1;" offset="0.101562"/><stop style="stop-color:#7cb7e0;stop-opacity:1;" offset="0.105469"/><stop style="stop-color:#7bb6df;stop-opacity:1;" offset="0.109375"/><stop style="stop-color:#7bb5df;stop-opacity:1;" offset="0.113281"/><stop style="stop-color:#7ab5de;stop-opacity:1;" offset="0.117188"/><stop style="stop-color:#7ab4de;stop-opacity:1;" offset="0.121094"/><stop style="stop-color:#7ab3dd;stop-opacity:1;" offset="0.125"/><stop style="stop-color:#79b3dd;stop-opacity:1;" offset="0.128906"/><stop style="stop-color:#79b2dc;stop-opacity:1;" offset="0.132812"/><stop style="stop-color:#78b2dc;stop-opacity:1;" offset="0.136719"/><stop style="stop-color:#78b1db;stop-opacity:1;" offset="0.140625"/><stop style="stop-color:#78b0da;stop-opacity:1;" offset="0.144531"/><stop style="stop-color:#77b0da;stop-opacity:1;" offset="0.148438"/><stop style="stop-color:#77afd9;stop-opacity:1;" offset="0.152344"/><stop style="stop-color:#76afd9;stop-opacity:1;" offset="0.15625"/><stop style="stop-color:#76aed8;stop-opacity:1;" offset="0.160156"/><stop style="stop-color:#76add8;stop-opacity:1;" offset="0.164062"/><stop style="stop-color:#75add7;stop-opacity:1;" offset="0.167969"/><stop style="stop-color:#75acd7;stop-opacity:1;" offset="0.171875"/><stop style="stop-color:#74abd6;stop-opacity:1;" offset="0.175781"/><stop style="stop-color:#74abd6;stop-opacity:1;" offset="0.179688"/><stop style="stop-color:#74aad5;stop-opacity:1;" offset="0.183594"/><stop style="stop-color:#73aad5;stop-opacity:1;" offset="0.1875"/><stop style="stop-color:#73a9d4;stop-opacity:1;" offset="0.191406"/><stop style="stop-color:#72a8d4;stop-opacity:1;" offset="0.195312"/><stop style="stop-color:#72a8d3;stop-opacity:1;" offset="0.199219"/><stop style="stop-color:#72a7d2;stop-opacity:1;" offset="0.203125"/><stop style="stop-color:#71a6d2;stop-opacity:1;" offset="0.207031"/><stop style="stop-color:#71a6d1;stop-opacity:1;" offset="0.210938"/><stop style="stop-color:#70a5d1;stop-opacity:1;" offset="0.214844"/><stop style="stop-color:#70a5d0;stop-opacity:1;" offset="0.21875"/><stop style="stop-color:#70a4d0;stop-opacity:1;" offset="0.222656"/><stop style="stop-color:#6fa3cf;stop-opacity:1;" offset="0.226562"/><stop style="stop-color:#6fa3cf;stop-opacity:1;" offset="0.230469"/><stop style="stop-color:#6ea2ce;stop-opacity:1;" offset="0.234375"/><stop style="stop-color:#6ea2ce;stop-opacity:1;" offset="0.238281"/><stop style="stop-color:#6da1cd;stop-opacity:1;" offset="0.242188"/><stop style="stop-color:#6da0cd;stop-opacity:1;" offset="0.246094"/><stop style="stop-color:#6da0cc;stop-opacity:1;" offset="0.25"/><stop style="stop-color:#6c9fcc;stop-opacity:1;" offset="0.253906"/><stop style="stop-color:#6c9ecb;stop-opacity:1;" offset="0.257812"/><stop style="stop-color:#6b9eca;stop-opacity:1;" offset="0.261719"/><stop style="stop-color:#6b9dca;stop-opacity:1;" offset="0.265625"/><stop style="stop-color:#6b9dc9;stop-opacity:1;" offset="0.269531"/><stop style="stop-color:#6a9cc9;stop-opacity:1;" offset="0.273438"/><stop style="stop-color:#6a9bc8;stop-opacity:1;" offset="0.277344"/><stop style="stop-color:#699bc8;stop-opacity:1;" offset="0.28125"/><stop style="stop-color:#699ac7;stop-opacity:1;" offset="0.285156"/><stop style="stop-color:#6999c7;stop-opacity:1;" offset="0.289062"/><stop style="stop-color:#6899c6;stop-opacity:1;" offset="0.292969"/><stop style="stop-color:#6898c6;stop-opacity:1;" offset="0.296875"/><stop style="stop-color:#6798c5;stop-opacity:1;" offset="0.300781"/><stop style="stop-color:#6797c5;stop-opacity:1;" offset="0.304688"/><stop style="stop-color:#6796c4;stop-opacity:1;" offset="0.308594"/><stop style="stop-color:#6696c4;stop-opacity:1;" offset="0.3125"/><stop style="stop-color:#6695c3;stop-opacity:1;" offset="0.316406"/><stop style="stop-color:#6594c2;stop-opacity:1;" offset="0.320312"/><stop style="stop-color:#6594c2;stop-opacity:1;" offset="0.324219"/><stop style="stop-color:#6593c1;stop-opacity:1;" offset="0.328125"/><stop style="stop-color:#6493c1;stop-opacity:1;" offset="0.332031"/><stop style="stop-color:#6492c0;stop-opacity:1;" offset="0.335938"/><stop style="stop-color:#6391c0;stop-opacity:1;" offset="0.339844"/><stop style="stop-color:#6391bf;stop-opacity:1;" offset="0.34375"/><stop style="stop-color:#6390bf;stop-opacity:1;" offset="0.347656"/><stop style="stop-color:#6290be;stop-opacity:1;" offset="0.351562"/><stop style="stop-color:#628fbe;stop-opacity:1;" offset="0.355469"/><stop style="stop-color:#618ebd;stop-opacity:1;" offset="0.359375"/><stop style="stop-color:#618ebd;stop-opacity:1;" offset="0.363281"/><stop style="stop-color:#618dbc;stop-opacity:1;" offset="0.367188"/><stop style="stop-color:#608cbc;stop-opacity:1;" offset="0.371094"/><stop style="stop-color:#608cbb;stop-opacity:1;" offset="0.375"/><stop style="stop-color:#5f8bbb;stop-opacity:1;" offset="0.378906"/><stop style="stop-color:#5f8bba;stop-opacity:1;" offset="0.382812"/><stop style="stop-color:#5f8ab9;stop-opacity:1;" offset="0.386719"/><stop style="stop-color:#5e89b9;stop-opacity:1;" offset="0.390625"/><stop style="stop-color:#5e89b8;stop-opacity:1;" offset="0.394531"/><stop style="stop-color:#5d88b8;stop-opacity:1;" offset="0.398438"/><stop style="stop-color:#5d87b7;stop-opacity:1;" offset="0.402344"/><stop style="stop-color:#5d87b7;stop-opacity:1;" offset="0.40625"/><stop style="stop-color:#5c86b6;stop-opacity:1;" offset="0.410156"/><stop style="stop-color:#5c86b6;stop-opacity:1;" offset="0.414062"/><stop style="stop-color:#5b85b5;stop-opacity:1;" offset="0.417969"/><stop style="stop-color:#5b84b5;stop-opacity:1;" offset="0.421875"/><stop style="stop-color:#5b84b4;stop-opacity:1;" offset="0.425781"/><stop style="stop-color:#5a83b4;stop-opacity:1;" offset="0.429688"/><stop style="stop-color:#5a83b3;stop-opacity:1;" offset="0.433594"/><stop style="stop-color:#5982b3;stop-opacity:1;" offset="0.4375"/><stop style="stop-color:#5981b2;stop-opacity:1;" offset="0.441406"/><stop style="stop-color:#5981b1;stop-opacity:1;" offset="0.445312"/><stop style="stop-color:#5880b1;stop-opacity:1;" offset="0.449219"/><stop style="stop-color:#587fb0;stop-opacity:1;" offset="0.453125"/><stop style="stop-color:#577fb0;stop-opacity:1;" offset="0.457031"/><stop style="stop-color:#577eaf;stop-opacity:1;" offset="0.460938"/><stop style="stop-color:#577eaf;stop-opacity:1;" offset="0.464844"/><stop style="stop-color:#567dae;stop-opacity:1;" offset="0.46875"/><stop style="stop-color:#567cae;stop-opacity:1;" offset="0.472656"/><stop style="stop-color:#557cad;stop-opacity:1;" offset="0.476562"/><stop style="stop-color:#557bad;stop-opacity:1;" offset="0.480469"/><stop style="stop-color:#557aac;stop-opacity:1;" offset="0.484375"/><stop style="stop-color:#547aac;stop-opacity:1;" offset="0.488281"/><stop style="stop-color:#5479ab;stop-opacity:1;" offset="0.492188"/><stop style="stop-color:#5379ab;stop-opacity:1;" offset="0.496094"/><stop style="stop-color:#5378aa;stop-opacity:1;" offset="0.5"/><stop style="stop-color:#5377a9;stop-opacity:1;" offset="0.503906"/><stop style="stop-color:#5277a9;stop-opacity:1;" offset="0.507812"/><stop style="stop-color:#5276a8;stop-opacity:1;" offset="0.511719"/><stop style="stop-color:#5176a8;stop-opacity:1;" offset="0.515625"/><stop style="stop-color:#5175a7;stop-opacity:1;" offset="0.519531"/><stop style="stop-color:#5174a7;stop-opacity:1;" offset="0.523438"/><stop style="stop-color:#5074a6;stop-opacity:1;" offset="0.527344"/><stop style="stop-color:#5073a6;stop-opacity:1;" offset="0.53125"/><stop style="stop-color:#4f72a5;stop-opacity:1;" offset="0.535156"/><stop style="stop-color:#4f72a5;stop-opacity:1;" offset="0.539062"/><stop style="stop-color:#4f71a4;stop-opacity:1;" offset="0.542969"/><stop style="stop-color:#4e71a4;stop-opacity:1;" offset="0.546875"/><stop style="stop-color:#4e70a3;stop-opacity:1;" offset="0.550781"/><stop style="stop-color:#4d6fa3;stop-opacity:1;" offset="0.554688"/><stop style="stop-color:#4d6fa2;stop-opacity:1;" offset="0.558594"/><stop style="stop-color:#4d6ea1;stop-opacity:1;" offset="0.5625"/><stop style="stop-color:#4c6da1;stop-opacity:1;" offset="0.566406"/><stop style="stop-color:#4c6da0;stop-opacity:1;" offset="0.570312"/><stop style="stop-color:#4b6ca0;stop-opacity:1;" offset="0.574219"/><stop style="stop-color:#4b6c9f;stop-opacity:1;" offset="0.578125"/><stop style="stop-color:#4b6b9f;stop-opacity:1;" offset="0.582031"/><stop style="stop-color:#4a6a9e;stop-opacity:1;" offset="0.585938"/><stop style="stop-color:#4a6a9e;stop-opacity:1;" offset="0.589844"/><stop style="stop-color:#49699d;stop-opacity:1;" offset="0.59375"/><stop style="stop-color:#49699d;stop-opacity:1;" offset="0.597656"/><stop style="stop-color:#49689c;stop-opacity:1;" offset="0.601562"/><stop style="stop-color:#48679c;stop-opacity:1;" offset="0.605469"/><stop style="stop-color:#48679b;stop-opacity:1;" offset="0.609375"/><stop style="stop-color:#47669b;stop-opacity:1;" offset="0.613281"/><stop style="stop-color:#47659a;stop-opacity:1;" offset="0.617188"/><stop style="stop-color:#47659a;stop-opacity:1;" offset="0.621094"/><stop style="stop-color:#466499;stop-opacity:1;" offset="0.625"/><stop style="stop-color:#466498;stop-opacity:1;" offset="0.628906"/><stop style="stop-color:#456398;stop-opacity:1;" offset="0.632812"/><stop style="stop-color:#456297;stop-opacity:1;" offset="0.636719"/><stop style="stop-color:#456297;stop-opacity:1;" offset="0.640625"/><stop style="stop-color:#446196;stop-opacity:1;" offset="0.644531"/><stop style="stop-color:#446096;stop-opacity:1;" offset="0.648438"/><stop style="stop-color:#436095;stop-opacity:1;" offset="0.652344"/><stop style="stop-color:#435f95;stop-opacity:1;" offset="0.65625"/><stop style="stop-color:#435f94;stop-opacity:1;" offset="0.660156"/><stop style="stop-color:#425e94;stop-opacity:1;" offset="0.664062"/><stop style="stop-color:#425d93;stop-opacity:1;" offset="0.667969"/><stop style="stop-color:#415d93;stop-opacity:1;" offset="0.671875"/><stop style="stop-color:#415c92;stop-opacity:1;" offset="0.675781"/><stop style="stop-color:#415c92;stop-opacity:1;" offset="0.679688"/><stop style="stop-color:#405b91;stop-opacity:1;" offset="0.683594"/><stop style="stop-color:#405a90;stop-opacity:1;" offset="0.6875"/><stop style="stop-color:#3f5a90;stop-opacity:1;" offset="0.691406"/><stop style="stop-color:#3f598f;stop-opacity:1;" offset="0.695312"/><stop style="stop-color:#3f588f;stop-opacity:1;" offset="0.699219"/><stop style="stop-color:#3e588e;stop-opacity:1;" offset="0.703125"/><stop style="stop-color:#3e578e;stop-opacity:1;" offset="0.707031"/><stop style="stop-color:#3d578d;stop-opacity:1;" offset="0.710938"/><stop style="stop-color:#3d568d;stop-opacity:1;" offset="0.714844"/><stop style="stop-color:#3d558c;stop-opacity:1;" offset="0.71875"/><stop style="stop-color:#3c558c;stop-opacity:1;" offset="0.722656"/><stop style="stop-color:#3c548b;stop-opacity:1;" offset="0.726562"/><stop style="stop-color:#3b538b;stop-opacity:1;" offset="0.730469"/><stop style="stop-color:#3b538a;stop-opacity:1;" offset="0.734375"/><stop style="stop-color:#3b528a;stop-opacity:1;" offset="0.738281"/><stop style="stop-color:#3a5289;stop-opacity:1;" offset="0.742188"/><stop style="stop-color:#3a5188;stop-opacity:1;" offset="0.746094"/><stop style="stop-color:#395088;stop-opacity:1;" offset="0.75"/><stop style="stop-color:#395087;stop-opacity:1;" offset="0.753906"/><stop style="stop-color:#394f87;stop-opacity:1;" offset="0.757812"/><stop style="stop-color:#384e86;stop-opacity:1;" offset="0.761719"/><stop style="stop-color:#384e86;stop-opacity:1;" offset="0.765625"/><stop style="stop-color:#374d85;stop-opacity:1;" offset="0.769531"/><stop style="stop-color:#374d85;stop-opacity:1;" offset="0.773438"/><stop style="stop-color:#374c84;stop-opacity:1;" offset="0.777344"/><stop style="stop-color:#364b84;stop-opacity:1;" offset="0.78125"/><stop style="stop-color:#364b83;stop-opacity:1;" offset="0.785156"/><stop style="stop-color:#354a83;stop-opacity:1;" offset="0.789062"/><stop style="stop-color:#354a82;stop-opacity:1;" offset="0.792969"/><stop style="stop-color:#344982;stop-opacity:1;" offset="0.796875"/><stop style="stop-color:#344881;stop-opacity:1;" offset="0.800781"/><stop style="stop-color:#344880;stop-opacity:1;" offset="0.804688"/><stop style="stop-color:#334780;stop-opacity:1;" offset="0.808594"/><stop style="stop-color:#33467f;stop-opacity:1;" offset="0.8125"/><stop style="stop-color:#32467f;stop-opacity:1;" offset="0.816406"/><stop style="stop-color:#32457e;stop-opacity:1;" offset="0.820312"/><stop style="stop-color:#32457e;stop-opacity:1;" offset="0.824219"/><stop style="stop-color:#31447d;stop-opacity:1;" offset="0.828125"/><stop style="stop-color:#31437d;stop-opacity:1;" offset="0.832031"/><stop style="stop-color:#30437c;stop-opacity:1;" offset="0.835938"/><stop style="stop-color:#30427c;stop-opacity:1;" offset="0.839844"/><stop style="stop-color:#30417b;stop-opacity:1;" offset="0.84375"/><stop style="stop-color:#2f417b;stop-opacity:1;" offset="0.847656"/><stop style="stop-color:#2f407a;stop-opacity:1;" offset="0.851562"/><stop style="stop-color:#2e407a;stop-opacity:1;" offset="0.855469"/><stop style="stop-color:#2e3f79;stop-opacity:1;" offset="0.859375"/><stop style="stop-color:#2e3e79;stop-opacity:1;" offset="0.863281"/><stop style="stop-color:#2d3e78;stop-opacity:1;" offset="0.867188"/><stop style="stop-color:#2d3d77;stop-opacity:1;" offset="0.871094"/><stop style="stop-color:#2c3d77;stop-opacity:1;" offset="0.875"/><stop style="stop-color:#2c3c76;stop-opacity:1;" offset="0.878906"/><stop style="stop-color:#2c3b76;stop-opacity:1;" offset="0.882812"/><stop style="stop-color:#2b3b75;stop-opacity:1;" offset="0.886719"/><stop style="stop-color:#2b3a75;stop-opacity:1;" offset="0.890625"/><stop style="stop-color:#2a3974;stop-opacity:1;" offset="0.894531"/><stop style="stop-color:#2a3974;stop-opacity:1;" offset="0.898438"/><stop style="stop-color:#2a3873;stop-opacity:1;" offset="0.902344"/><stop style="stop-color:#293873;stop-opacity:1;" offset="0.90625"/><stop style="stop-color:#293772;stop-opacity:1;" offset="0.910156"/><stop style="stop-color:#283672;stop-opacity:1;" offset="0.914062"/><stop style="stop-color:#283671;stop-opacity:1;" offset="0.917969"/><stop style="stop-color:#283571;stop-opacity:1;" offset="0.921875"/><stop style="stop-color:#273470;stop-opacity:1;" offset="0.925781"/><stop style="stop-color:#27346f;stop-opacity:1;" offset="0.929688"/><stop style="stop-color:#26336f;stop-opacity:1;" offset="0.933594"/><stop style="stop-color:#26336e;stop-opacity:1;" offset="0.9375"/><stop style="stop-color:#26326e;stop-opacity:1;" offset="0.941406"/><stop style="stop-color:#25316d;stop-opacity:1;" offset="0.945312"/><stop style="stop-color:#25316d;stop-opacity:1;" offset="0.953125"/><stop style="stop-color:#25316d;stop-opacity:1;" offset="0.96875"/><stop style="stop-color:#25316d;stop-opacity:1;" offset="1"/></linearGradient><clipPath id="d854ac1f6a"><path d="M 36.40625 72 L 107 72 L 107 139.574219 L 36.40625 139.574219 Z M 36.40625 72 "/></clipPath><clipPath id="03a185f8cb"><path d="M 68 35.910156 L 140 35.910156 L 140 95 L 68 95 Z M 68 35.910156 "/></clipPath></defs><g id="c9796737c9"><g clip-rule="nonzero" clip-path="url(#9eae7ccca3)"><g clip-rule="nonzero" clip-path="url(#7be18f2f40)"><g clip-rule="nonzero" clip-path="url(#10733b1667)"><g clip-rule="nonzero" clip-path="url(#8a1817de1b)"><path style="fill:none;stroke-width:28;stroke-linecap:butt;stroke-linejoin:miter;stroke:url(#86114e5ead);stroke-miterlimit:4;" d="M 83.648451 0.000857994 C 37.451424 0.00123339 -0.00164145 37.45155 -0.00126605 83.648577 C -0.000890654 129.845603 37.449426 167.298669 83.646453 167.298293 C 129.843479 167.297918 167.296545 129.847601 167.296169 83.650575 C 167.299084 37.449473 129.845477 0.000482597 83.648451 0.000857994 Z M 83.648451 0.000857994 " transform="matrix(0.468437,0.580314,-0.580314,0.468437,97.582074,0.000221016)"/></g></g></g></g><g clip-rule="nonzero" clip-path="url(#f0c3cee87a)"><g clip-rule="nonzero" clip-path="url(#0e8e0cffd2)"><g transform="matrix(1,0,0,1,107,26)"><g clip-path="url(#38d336b8de)"><g clip-rule="nonzero" clip-path="url(#9f5fe05588)"><g clip-rule="nonzero" clip-path="url(#ec37cc96d2)"><path style=" stroke:none;fill-rule:nonzero;fill:#ffffff;fill-opacity:1;" d="M 0.269531 20.960938 L 16.628906 0.703125 L 37.28125 17.382812 L 20.925781 37.640625 Z M 0.269531 20.960938 "/></g></g></g></g></g></g><g clip-rule="nonzero" clip-path="url(#fb4029fc8a)"><g clip-rule="nonzero" clip-path="url(#5beca96c23)"><g clip-rule="nonzero" clip-path="url(#43df6f030e)"><g clip-rule="nonzero" clip-path="url(#4d463ba53b)"><path style="fill:none;stroke-width:38;stroke-linecap:butt;stroke-linejoin:miter;stroke:url(#a1e29477de);stroke-miterlimit:4;" d="M 14.396456 0.000413042 C 6.448067 0.00187367 0.0026799 6.448415 -0.00108156 14.397208 C 0.000783859 22.350819 6.447325 28.796206 14.395714 28.794746 C 22.349729 28.798102 28.795117 22.351561 28.798473 14.397546 C 28.796608 6.443935 22.350066 -0.00145238 14.396456 0.000413042 Z M 14.396456 0.000413042 " transform="matrix(0.0576365,-0.743556,0.743556,0.0576365,114.248057,55.060016)"/></g></g></g></g><g clip-rule="nonzero" clip-path="url(#d854ac1f6a)"><path style=" stroke:none;fill-rule:nonzero;fill:#5a81b5;fill-opacity:1;" d="M 102.867188 115.511719 C 101.375 114.019531 99.992188 112.417969 98.742188 110.730469 L 98.742188 120.605469 C 98.742188 120.953125 98.742188 121.304688 98.71875 121.636719 C 98.699219 121.964844 98.65625 122.316406 98.589844 122.667969 C 98.523438 123.015625 98.457031 123.347656 98.347656 123.675781 C 98.261719 124.003906 98.148438 124.332031 98.019531 124.664062 C 97.886719 124.992188 97.753906 125.300781 97.578125 125.605469 C 97.425781 125.914062 97.25 126.21875 97.054688 126.507812 C 96.855469 126.792969 96.65625 127.078125 96.4375 127.339844 C 96.21875 127.601562 96 127.867188 95.738281 128.109375 C 95.496094 128.347656 95.230469 128.589844 94.96875 128.808594 C 94.707031 129.027344 94.421875 129.25 94.136719 129.445312 C 93.851562 129.644531 93.542969 129.820312 93.234375 129.996094 C 92.929688 130.171875 92.621094 130.300781 92.292969 130.457031 C 91.960938 130.585938 91.65625 130.71875 91.304688 130.804688 C 90.976562 130.917969 90.644531 131.003906 90.296875 131.070312 C 89.945312 131.136719 89.613281 131.179688 89.265625 131.222656 C 88.914062 131.265625 88.5625 131.265625 88.234375 131.265625 C 87.882812 131.265625 87.53125 131.246094 87.203125 131.222656 C 86.851562 131.179688 86.519531 131.136719 86.171875 131.070312 C 85.820312 131.003906 85.488281 130.917969 85.160156 130.804688 C 84.832031 130.695312 84.503906 130.585938 84.171875 130.457031 C 83.84375 130.324219 83.539062 130.171875 83.230469 129.996094 C 82.921875 129.820312 82.636719 129.644531 82.332031 129.445312 C 82.046875 129.25 81.761719 129.050781 81.496094 128.808594 C 81.234375 128.589844 80.96875 128.347656 80.730469 128.109375 C 80.488281 127.867188 80.246094 127.601562 80.027344 127.339844 C 79.808594 127.078125 79.609375 126.792969 79.414062 126.507812 C 79.214844 126.21875 79.039062 125.914062 78.886719 125.605469 C 78.730469 125.300781 78.578125 124.992188 78.445312 124.664062 C 78.316406 124.332031 78.207031 124.003906 78.117188 123.675781 C 78.03125 123.347656 77.941406 122.996094 77.875 122.667969 C 77.808594 122.316406 77.765625 121.984375 77.746094 121.636719 C 77.722656 121.285156 77.699219 120.933594 77.722656 120.605469 L 77.722656 97.894531 L 55.078125 97.894531 C 54.53125 97.894531 53.980469 97.851562 53.433594 97.761719 C 52.886719 97.675781 52.359375 97.542969 51.832031 97.367188 C 51.304688 97.191406 50.800781 96.996094 50.316406 96.730469 C 49.835938 96.488281 49.351562 96.183594 48.914062 95.875 C 48.476562 95.546875 48.058594 95.195312 47.664062 94.800781 C 47.269531 94.40625 46.917969 93.988281 46.585938 93.550781 C 46.257812 93.109375 45.972656 92.628906 45.730469 92.144531 C 45.492188 91.664062 45.269531 91.136719 45.097656 90.632812 C 44.921875 90.105469 44.808594 89.578125 44.722656 89.03125 C 44.636719 88.480469 44.589844 87.933594 44.589844 87.382812 C 44.589844 86.835938 44.636719 86.289062 44.722656 85.738281 C 44.808594 85.191406 44.941406 84.664062 45.117188 84.136719 C 45.292969 83.609375 45.511719 83.105469 45.753906 82.625 C 45.996094 82.140625 46.300781 81.65625 46.609375 81.21875 C 46.9375 80.78125 47.289062 80.363281 47.683594 79.96875 C 48.078125 79.574219 48.496094 79.222656 48.933594 78.914062 L 49.726562 78.34375 C 48.695312 77.488281 47.75 76.566406 46.871094 75.558594 C 45.929688 74.503906 45.074219 73.386719 44.261719 72.222656 L 43.867188 72.507812 C 43.472656 72.792969 43.097656 73.101562 42.746094 73.429688 C 42.375 73.757812 42.023438 74.085938 41.695312 74.4375 C 41.367188 74.789062 41.035156 75.140625 40.730469 75.515625 C 40.421875 75.886719 40.113281 76.261719 39.851562 76.675781 C 39.566406 77.070312 39.304688 77.488281 39.0625 77.90625 C 38.820312 78.324219 38.578125 78.738281 38.359375 79.179688 C 38.140625 79.617188 37.941406 80.054688 37.765625 80.496094 C 37.589844 80.933594 37.417969 81.394531 37.285156 81.855469 C 37.132812 82.316406 37.019531 82.777344 36.910156 83.257812 C 36.800781 83.742188 36.714844 84.203125 36.648438 84.6875 C 36.582031 85.167969 36.515625 85.652344 36.496094 86.132812 C 36.472656 86.636719 36.472656 87.121094 36.472656 87.605469 C 36.472656 88.085938 36.496094 88.570312 36.539062 89.050781 C 36.582031 89.535156 36.648438 90.015625 36.714844 90.5 C 36.800781 90.984375 36.890625 91.445312 37 91.925781 C 37.109375 92.386719 37.261719 92.871094 37.394531 93.332031 C 37.546875 93.792969 37.722656 94.253906 37.898438 94.691406 C 38.097656 95.128906 38.292969 95.570312 38.511719 96.007812 C 38.734375 96.445312 38.972656 96.863281 39.238281 97.28125 C 39.5 97.695312 39.765625 98.089844 40.050781 98.488281 C 40.335938 98.882812 40.640625 99.253906 40.949219 99.628906 C 41.257812 100 41.605469 100.351562 41.9375 100.679688 C 42.289062 101.03125 42.636719 101.339844 43.011719 101.667969 C 43.382812 101.976562 43.757812 102.28125 44.152344 102.566406 C 44.546875 102.851562 44.941406 103.117188 45.359375 103.378906 C 45.777344 103.644531 46.191406 103.863281 46.632812 104.082031 C 47.070312 104.300781 47.507812 104.5 47.949219 104.695312 C 48.386719 104.871094 48.847656 105.046875 49.308594 105.199219 C 49.769531 105.355469 50.230469 105.484375 50.710938 105.597656 C 51.171875 105.707031 51.65625 105.792969 52.140625 105.882812 C 52.621094 105.945312 53.105469 106.011719 53.585938 106.054688 C 54.070312 106.101562 54.550781 106.121094 55.035156 106.121094 L 69.582031 106.121094 L 69.582031 120.648438 C 69.582031 120.953125 69.582031 121.261719 69.582031 121.570312 C 69.582031 121.875 69.605469 122.183594 69.625 122.492188 C 69.648438 122.796875 69.691406 123.105469 69.734375 123.414062 C 69.78125 123.71875 69.824219 124.027344 69.890625 124.332031 C 69.957031 124.640625 70 124.949219 70.085938 125.234375 C 70.152344 125.539062 70.242188 125.824219 70.328125 126.132812 C 70.417969 126.417969 70.503906 126.726562 70.613281 127.011719 C 70.722656 127.296875 70.8125 127.582031 70.941406 127.867188 C 71.050781 128.152344 71.183594 128.4375 71.316406 128.722656 C 71.449219 129.007812 71.578125 129.269531 71.710938 129.554688 C 71.863281 129.820312 71.996094 130.105469 72.148438 130.367188 C 72.304688 130.632812 72.457031 130.894531 72.632812 131.15625 C 72.808594 131.421875 72.984375 131.664062 73.160156 131.925781 C 73.335938 132.167969 73.53125 132.40625 73.730469 132.648438 C 73.925781 132.890625 74.125 133.132812 74.320312 133.351562 C 74.519531 133.570312 74.738281 133.8125 74.957031 134.03125 C 75.175781 134.25 75.398438 134.46875 75.617188 134.667969 C 75.835938 134.867188 76.078125 135.085938 76.320312 135.28125 C 76.558594 135.480469 76.800781 135.675781 77.042969 135.851562 C 77.285156 136.027344 77.546875 136.226562 77.789062 136.378906 C 78.050781 136.554688 78.292969 136.707031 78.554688 136.882812 C 78.820312 137.039062 79.082031 137.191406 79.367188 137.34375 C 79.632812 137.5 79.917969 137.628906 80.203125 137.761719 C 80.488281 137.894531 80.75 138.023438 81.035156 138.136719 C 81.320312 138.246094 81.605469 138.375 81.890625 138.464844 C 82.175781 138.574219 82.484375 138.660156 82.769531 138.75 C 83.054688 138.835938 83.363281 138.925781 83.667969 138.992188 C 83.976562 139.054688 84.261719 139.144531 84.570312 139.1875 C 84.875 139.230469 85.183594 139.296875 85.46875 139.339844 C 85.773438 139.386719 86.082031 139.429688 86.390625 139.453125 C 86.695312 139.472656 87.003906 139.496094 87.3125 139.515625 C 87.617188 139.539062 87.925781 139.539062 88.234375 139.539062 C 88.539062 139.539062 88.847656 139.539062 89.152344 139.515625 C 89.460938 139.496094 89.769531 139.472656 90.074219 139.453125 C 90.382812 139.429688 90.691406 139.386719 90.996094 139.339844 C 91.304688 139.296875 91.613281 139.253906 91.898438 139.1875 C 92.183594 139.121094 92.488281 139.054688 92.796875 138.992188 C 93.105469 138.925781 93.390625 138.835938 93.695312 138.75 C 93.980469 138.660156 94.289062 138.550781 94.574219 138.464844 C 94.859375 138.355469 95.144531 138.246094 95.429688 138.136719 C 95.714844 138.023438 96 137.894531 96.261719 137.761719 C 96.546875 137.628906 96.8125 137.5 97.097656 137.34375 C 97.359375 137.191406 97.644531 137.039062 97.910156 136.882812 C 98.171875 136.730469 98.433594 136.554688 98.675781 136.378906 C 98.941406 136.203125 99.179688 136.027344 99.421875 135.851562 C 99.664062 135.675781 99.90625 135.480469 100.148438 135.28125 C 100.386719 135.085938 100.609375 134.886719 100.847656 134.667969 C 101.066406 134.46875 101.289062 134.25 101.507812 134.03125 C 101.726562 133.8125 101.925781 133.59375 102.144531 133.351562 C 102.339844 133.132812 102.539062 132.890625 102.734375 132.648438 C 102.933594 132.40625 103.109375 132.167969 103.304688 131.925781 C 103.480469 131.683594 103.65625 131.421875 103.832031 131.15625 C 104.007812 130.894531 104.160156 130.632812 104.316406 130.367188 C 104.46875 130.105469 104.621094 129.839844 104.753906 129.554688 C 104.886719 129.292969 105.039062 129.007812 105.148438 128.722656 C 105.28125 128.4375 105.390625 128.152344 105.523438 127.867188 C 105.632812 127.582031 105.742188 127.296875 105.851562 127.011719 C 105.960938 126.726562 106.050781 126.417969 106.136719 126.132812 C 106.222656 125.847656 106.3125 125.539062 106.378906 125.234375 C 106.445312 124.925781 106.511719 124.640625 106.574219 124.332031 C 106.640625 124.027344 106.683594 123.71875 106.730469 123.414062 C 106.773438 123.105469 106.796875 122.796875 106.839844 122.492188 C 106.859375 122.183594 106.882812 121.875 106.882812 121.570312 C 106.882812 121.261719 106.90625 120.953125 106.882812 120.648438 L 106.882812 118.980469 C 105.457031 117.882812 104.097656 116.765625 102.867188 115.511719 Z M 102.867188 115.511719 "/></g><g clip-rule="nonzero" clip-path="url(#03a185f8cb)"><path style=" stroke:none;fill-rule:nonzero;fill:#304279;fill-opacity:1;" d="M 71.382812 72.375 C 70.765625 73.824219 69.910156 75.117188 68.8125 76.238281 L 69.078125 76.851562 L 69.078125 76.917969 L 77.765625 76.917969 L 77.765625 54.253906 C 77.765625 53.921875 77.789062 53.574219 77.832031 53.242188 C 77.875 52.914062 77.921875 52.5625 78.007812 52.234375 C 78.074219 51.90625 78.160156 51.574219 78.269531 51.246094 C 78.382812 50.917969 78.492188 50.609375 78.621094 50.304688 C 78.753906 49.996094 78.90625 49.6875 79.0625 49.382812 C 79.214844 49.074219 79.414062 48.789062 79.585938 48.527344 C 79.785156 48.242188 79.984375 47.976562 80.203125 47.714844 C 80.421875 47.449219 80.640625 47.210938 80.882812 46.96875 C 81.125 46.726562 81.386719 46.507812 81.648438 46.289062 C 81.914062 46.070312 82.175781 45.871094 82.460938 45.695312 C 82.746094 45.519531 83.03125 45.34375 83.339844 45.191406 C 83.648438 45.039062 83.953125 44.882812 84.261719 44.753906 C 84.570312 44.621094 84.898438 44.511719 85.226562 44.421875 C 85.554688 44.335938 85.886719 44.246094 86.214844 44.183594 C 86.542969 44.117188 86.871094 44.070312 87.222656 44.027344 C 87.550781 43.984375 87.902344 43.984375 88.234375 43.984375 C 88.5625 43.984375 88.914062 44.007812 89.242188 44.027344 C 89.570312 44.050781 89.921875 44.117188 90.25 44.183594 C 90.582031 44.246094 90.910156 44.335938 91.238281 44.421875 C 91.566406 44.511719 91.875 44.640625 92.203125 44.753906 C 92.511719 44.882812 92.820312 45.015625 93.125 45.191406 C 93.433594 45.34375 93.71875 45.519531 94.003906 45.695312 C 94.289062 45.871094 94.550781 46.089844 94.816406 46.289062 C 95.078125 46.507812 95.339844 46.726562 95.582031 46.96875 C 95.824219 47.210938 96.066406 47.449219 96.261719 47.714844 C 96.484375 47.976562 96.679688 48.242188 96.878906 48.527344 C 97.074219 48.8125 97.25 49.097656 97.402344 49.382812 C 97.558594 49.667969 97.710938 49.972656 97.84375 50.304688 C 97.972656 50.609375 98.105469 50.941406 98.195312 51.246094 C 98.304688 51.574219 98.390625 51.90625 98.457031 52.234375 C 98.523438 52.5625 98.589844 52.890625 98.632812 53.242188 C 98.675781 53.574219 98.699219 53.921875 98.699219 54.253906 L 98.699219 76.941406 L 102.605469 76.941406 C 103.242188 76.632812 103.921875 76.390625 104.601562 76.238281 C 105.304688 76.085938 106.003906 75.996094 106.707031 75.996094 C 107.410156 75.996094 108.113281 76.085938 108.8125 76.238281 C 109.515625 76.390625 110.175781 76.632812 110.808594 76.941406 L 121.363281 76.941406 C 121.714844 76.941406 122.042969 76.960938 122.394531 76.984375 C 122.746094 77.027344 123.074219 77.070312 123.40625 77.136719 C 123.734375 77.203125 124.0625 77.292969 124.390625 77.378906 C 124.722656 77.488281 125.050781 77.597656 125.359375 77.730469 C 125.664062 77.863281 125.992188 78.015625 126.277344 78.167969 C 126.585938 78.324219 126.871094 78.5 127.15625 78.695312 C 127.441406 78.894531 127.726562 79.089844 127.992188 79.308594 C 128.253906 79.53125 128.515625 79.75 128.757812 79.988281 C 129 80.230469 129.242188 80.496094 129.4375 80.757812 C 129.65625 81.019531 129.855469 81.304688 130.054688 81.59375 C 130.25 81.878906 130.425781 82.164062 130.578125 82.46875 C 130.734375 82.777344 130.886719 83.082031 131.019531 83.390625 C 131.148438 83.699219 131.257812 84.027344 131.371094 84.355469 C 131.480469 84.6875 131.546875 85.015625 131.609375 85.34375 C 131.675781 85.671875 131.71875 86.023438 131.765625 86.351562 C 131.808594 86.703125 131.808594 87.035156 131.808594 87.382812 C 131.808594 88.019531 131.742188 88.65625 131.632812 89.269531 C 134.59375 89.863281 137.074219 91.027344 138.523438 93.617188 C 138.609375 93.746094 138.652344 93.902344 138.742188 94.054688 L 139.027344 93.222656 C 139.136719 92.871094 139.246094 92.519531 139.335938 92.167969 C 139.421875 91.816406 139.507812 91.464844 139.574219 91.09375 C 139.640625 90.742188 139.707031 90.367188 139.773438 90.015625 C 139.839844 89.667969 139.859375 89.292969 139.90625 88.921875 C 139.925781 88.546875 139.949219 88.195312 139.96875 87.824219 C 139.96875 87.449219 139.96875 87.097656 139.96875 86.726562 C 139.949219 86.351562 139.925781 86.003906 139.90625 85.628906 C 139.882812 85.257812 139.816406 84.90625 139.773438 84.53125 C 139.707031 84.160156 139.640625 83.808594 139.574219 83.457031 C 139.488281 83.105469 139.398438 82.734375 139.3125 82.382812 C 139.222656 82.03125 139.113281 81.679688 138.984375 81.328125 C 138.875 80.976562 138.742188 80.648438 138.589844 80.296875 C 138.457031 79.96875 138.304688 79.617188 138.148438 79.289062 C 137.996094 78.957031 137.820312 78.628906 137.644531 78.324219 C 137.46875 78.015625 137.273438 77.6875 137.074219 77.378906 C 136.875 77.070312 136.679688 76.765625 136.460938 76.480469 C 136.242188 76.171875 136.019531 75.886719 135.78125 75.601562 C 135.539062 75.316406 135.296875 75.03125 135.054688 74.769531 C 134.8125 74.503906 134.550781 74.242188 134.289062 73.976562 C 134.023438 73.714844 133.761719 73.472656 133.476562 73.230469 C 133.191406 72.992188 132.90625 72.769531 132.621094 72.550781 C 132.335938 72.332031 132.027344 72.113281 131.71875 71.914062 C 131.414062 71.71875 131.105469 71.519531 130.800781 71.324219 C 130.492188 71.148438 130.164062 70.949219 129.832031 70.796875 C 129.503906 70.621094 129.175781 70.46875 128.847656 70.3125 C 128.515625 70.160156 128.167969 70.027344 127.816406 69.898438 C 127.464844 69.765625 127.136719 69.65625 126.785156 69.546875 C 126.433594 69.4375 126.082031 69.347656 125.730469 69.261719 C 125.378906 69.171875 125.007812 69.105469 124.65625 69.042969 C 124.304688 68.976562 123.929688 68.929688 123.558594 68.886719 C 123.183594 68.84375 122.835938 68.820312 122.460938 68.800781 C 122.089844 68.777344 121.738281 68.757812 121.363281 68.777344 L 106.839844 68.777344 L 106.839844 54.253906 C 106.839844 53.636719 106.796875 53.046875 106.730469 52.453125 C 106.664062 51.859375 106.554688 51.269531 106.445312 50.675781 C 106.3125 50.082031 106.160156 49.511719 105.984375 48.921875 C 105.808594 48.351562 105.589844 47.78125 105.347656 47.230469 C 105.105469 46.683594 104.84375 46.132812 104.558594 45.609375 C 104.273438 45.082031 103.941406 44.554688 103.613281 44.070312 C 103.261719 43.566406 102.910156 43.085938 102.515625 42.625 C 102.121094 42.164062 101.726562 41.722656 101.289062 41.285156 C 100.847656 40.867188 100.410156 40.453125 99.925781 40.078125 C 99.464844 39.707031 98.960938 39.332031 98.457031 39.003906 C 97.953125 38.675781 97.425781 38.367188 96.898438 38.082031 C 96.371094 37.796875 95.824219 37.554688 95.253906 37.3125 C 94.707031 37.09375 94.136719 36.875 93.542969 36.722656 C 92.972656 36.546875 92.378906 36.390625 91.789062 36.28125 C 91.195312 36.171875 90.601562 36.085938 89.988281 36.019531 C 89.460938 35.933594 88.867188 35.910156 88.253906 35.910156 C 87.640625 35.910156 87.046875 35.933594 86.457031 35.996094 C 85.863281 36.0625 85.25 36.152344 84.65625 36.261719 C 84.0625 36.371094 83.472656 36.523438 82.902344 36.699219 C 82.332031 36.875 81.761719 37.074219 81.1875 37.292969 C 80.640625 37.511719 80.09375 37.773438 79.542969 38.058594 C 79.015625 38.34375 78.492188 38.652344 77.984375 38.980469 C 77.480469 39.3125 77 39.660156 76.515625 40.058594 C 76.054688 40.429688 75.59375 40.847656 75.15625 41.261719 C 74.714844 41.679688 74.320312 42.140625 73.925781 42.601562 C 73.53125 43.0625 73.179688 43.546875 72.828125 44.050781 C 72.480469 44.554688 72.171875 45.058594 71.886719 45.585938 C 71.601562 46.113281 71.335938 46.660156 71.097656 47.210938 C 70.855469 47.757812 70.65625 48.328125 70.460938 48.898438 C 70.285156 49.46875 70.132812 50.0625 70 50.65625 C 69.867188 51.246094 69.78125 51.839844 69.714844 52.433594 C 69.648438 53.023438 69.605469 53.636719 69.605469 54.230469 L 69.605469 54.582031 C 71.820312 59.9375 73.070312 68.296875 71.382812 72.375 Z M 71.382812 72.375 "/></g><path style=" stroke:none;fill-rule:nonzero;fill:#5a81b5;fill-opacity:1;" d="M 42.375 62.832031 C 42.726562 65.507812 45.46875 70.3125 48.714844 73.976562 C 50.054688 75.492188 52.050781 77.421875 53.9375 78.125 C 54.792969 78.410156 55.648438 78.609375 56.550781 78.695312 C 57.449219 78.785156 58.328125 78.761719 59.226562 78.628906 L 60.167969 80.78125 C 60.234375 80.933594 60.324219 81.085938 60.433594 81.21875 C 60.542969 81.351562 60.652344 81.480469 60.804688 81.59375 C 60.9375 81.703125 61.089844 81.789062 61.246094 81.855469 C 61.398438 81.921875 61.574219 81.964844 61.75 82.007812 L 61.835938 82.316406 L 62.824219 81.878906 C 62.914062 82.164062 63.023438 82.402344 63.132812 82.644531 C 63.789062 84.136719 64.667969 85.519531 65.742188 86.726562 C 66.6875 87.757812 67.738281 88.679688 68.902344 89.445312 C 70.066406 90.214844 71.316406 90.828125 72.652344 91.289062 C 76.492188 92.671875 79.71875 92.210938 82.570312 91.792969 C 87.441406 91.09375 90.667969 90.632812 95.101562 99.980469 C 97.644531 105.375 101.023438 110.269531 104.578125 113.800781 C 108.8125 117.992188 113.289062 120.230469 117.566406 120.339844 C 123.910156 120.472656 129.460938 116.105469 134.113281 107.371094 C 137.273438 101.425781 138.039062 97.433594 136.570312 94.824219 C 134.75 91.574219 130.25 91.332031 125.027344 91.027344 C 121.058594 90.808594 116.558594 90.542969 113.003906 88.875 C 113.070312 88.746094 113.136719 88.613281 113.203125 88.503906 C 113.269531 88.371094 113.3125 88.238281 113.378906 88.109375 C 113.421875 87.976562 113.488281 87.84375 113.53125 87.714844 C 113.574219 87.582031 113.617188 87.449219 113.664062 87.296875 C 113.707031 87.164062 113.730469 87.011719 113.773438 86.878906 C 113.792969 86.75 113.816406 86.59375 113.839844 86.460938 C 113.859375 86.308594 113.882812 86.175781 113.882812 86.023438 C 113.902344 85.871094 113.902344 85.738281 113.902344 85.585938 C 113.902344 85.429688 113.902344 85.300781 113.902344 85.144531 C 113.902344 84.992188 113.882812 84.859375 113.882812 84.707031 C 113.859375 84.554688 113.839844 84.421875 113.816406 84.289062 C 113.792969 84.160156 113.773438 84.003906 113.730469 83.875 C 113.707031 83.742188 113.664062 83.589844 113.617188 83.457031 C 113.574219 83.324219 113.53125 83.195312 113.488281 83.039062 C 113.441406 82.910156 113.378906 82.777344 113.332031 82.644531 C 113.269531 82.511719 113.222656 82.382812 113.15625 82.25 C 113.09375 82.117188 113.027344 81.988281 112.960938 81.878906 C 112.894531 81.746094 112.808594 81.636719 112.742188 81.503906 C 112.652344 81.394531 112.585938 81.261719 112.5 81.152344 C 112.410156 81.042969 112.324219 80.933594 112.238281 80.824219 C 112.148438 80.714844 112.039062 80.605469 111.953125 80.515625 C 111.839844 80.40625 111.753906 80.320312 111.644531 80.210938 C 111.535156 80.121094 111.425781 80.011719 111.316406 79.925781 C 111.207031 79.835938 111.09375 79.75 110.964844 79.660156 C 110.855469 79.574219 110.722656 79.507812 110.613281 79.417969 C 110.480469 79.355469 110.371094 79.265625 110.238281 79.199219 C 110.109375 79.132812 109.976562 79.070312 109.84375 79.003906 C 109.714844 78.9375 109.582031 78.894531 109.449219 78.828125 C 109.316406 78.785156 109.1875 78.71875 109.054688 78.671875 C 108.921875 78.628906 108.769531 78.585938 108.636719 78.5625 C 108.507812 78.519531 108.351562 78.5 108.222656 78.476562 C 108.089844 78.453125 107.9375 78.433594 107.804688 78.410156 C 107.671875 78.386719 107.519531 78.367188 107.367188 78.367188 C 107.210938 78.367188 107.082031 78.34375 106.925781 78.34375 C 106.773438 78.34375 106.640625 78.34375 106.488281 78.34375 C 106.335938 78.34375 106.203125 78.367188 106.050781 78.386719 C 105.894531 78.410156 105.765625 78.433594 105.632812 78.453125 C 105.5 78.476562 105.347656 78.5 105.214844 78.542969 C 105.082031 78.585938 104.929688 78.609375 104.796875 78.652344 C 104.667969 78.695312 104.535156 78.738281 104.382812 78.785156 C 104.25 78.828125 104.117188 78.894531 103.988281 78.9375 C 103.855469 79.003906 103.722656 79.046875 103.589844 79.113281 C 103.460938 79.179688 103.328125 79.242188 103.21875 79.332031 C 103.109375 79.417969 102.976562 79.484375 102.84375 79.574219 C 102.734375 79.660156 102.605469 79.75 102.496094 79.835938 C 102.386719 79.925781 102.273438 80.011719 102.164062 80.101562 C 102.054688 80.1875 101.945312 80.296875 101.859375 80.386719 C 101.75 80.496094 101.660156 80.582031 101.574219 80.691406 C 101.484375 80.800781 101.375 80.910156 101.289062 81.019531 C 101.199219 81.132812 101.113281 81.242188 101.023438 81.371094 C 100.9375 81.480469 100.871094 81.613281 100.78125 81.722656 C 100.71875 81.855469 100.628906 81.964844 100.5625 82.097656 C 100.496094 82.226562 100.433594 82.359375 100.367188 82.492188 C 100.300781 82.625 100.257812 82.753906 100.191406 82.886719 C 100.148438 83.019531 100.101562 83.148438 100.058594 83.304688 C 100.015625 83.433594 99.972656 83.566406 99.949219 83.71875 C 99.90625 83.851562 99.882812 84.003906 99.863281 84.136719 C 99.839844 84.269531 99.816406 84.421875 99.796875 84.554688 C 99.773438 84.707031 99.773438 84.839844 99.75 84.992188 C 99.75 85.144531 99.730469 85.277344 99.730469 85.429688 C 99.730469 85.585938 99.730469 85.71875 99.75 85.871094 C 99.75 86.023438 99.773438 86.15625 99.796875 86.308594 C 99.816406 86.460938 99.839844 86.59375 99.863281 86.726562 C 99.882812 86.859375 99.925781 87.011719 99.949219 87.144531 C 99.972656 87.273438 100.015625 87.429688 100.058594 87.558594 C 100.101562 87.691406 100.148438 87.824219 100.191406 87.976562 C 100.234375 88.109375 100.300781 88.238281 100.367188 88.371094 C 100.433594 88.503906 100.496094 88.636719 100.5625 88.765625 C 100.628906 88.898438 100.695312 89.007812 100.78125 89.140625 C 100.847656 89.269531 100.9375 89.382812 101.023438 89.492188 C 101.113281 89.601562 101.199219 89.730469 101.289062 89.839844 C 101.375 89.953125 101.464844 90.0625 101.574219 90.171875 C 101.660156 90.28125 101.769531 90.390625 101.878906 90.476562 C 101.988281 90.585938 102.078125 90.675781 102.1875 90.761719 C 102.296875 90.851562 102.40625 90.9375 102.515625 91.027344 C 102.625 91.113281 102.734375 91.203125 102.867188 91.289062 C 102.976562 91.378906 103.109375 91.445312 103.242188 91.53125 C 103.371094 91.597656 103.480469 91.683594 103.613281 91.75 C 103.746094 91.816406 103.875 91.882812 104.007812 91.925781 C 104.140625 91.992188 104.273438 92.035156 104.402344 92.078125 C 104.535156 92.125 104.667969 92.167969 104.820312 92.210938 C 104.953125 92.253906 105.105469 92.300781 105.238281 92.320312 C 105.367188 92.363281 105.523438 92.386719 105.652344 92.410156 C 105.785156 92.429688 105.9375 92.453125 106.070312 92.476562 C 106.222656 92.496094 106.355469 92.496094 106.511719 92.519531 C 106.664062 92.519531 106.796875 92.519531 106.949219 92.519531 C 107.101562 92.519531 107.234375 92.519531 107.386719 92.496094 C 107.542969 92.496094 107.671875 92.476562 107.828125 92.453125 C 107.957031 92.429688 108.113281 92.410156 108.242188 92.386719 C 108.375 92.363281 108.527344 92.320312 108.660156 92.300781 C 108.792969 92.253906 108.945312 92.234375 109.078125 92.191406 C 109.207031 92.144531 109.339844 92.101562 109.472656 92.035156 C 109.605469 91.992188 109.734375 91.925781 109.867188 91.859375 C 110 91.792969 110.128906 91.730469 110.261719 91.664062 C 110.394531 91.597656 110.503906 91.53125 110.636719 91.445312 C 110.765625 91.378906 110.875 91.289062 110.984375 91.203125 C 115.285156 93.484375 120.398438 93.769531 124.941406 94.03125 C 129.085938 94.273438 132.992188 94.492188 134.003906 96.269531 C 134.617188 97.347656 134.683594 99.890625 131.5 105.902344 C 127.441406 113.558594 122.789062 117.398438 117.722656 117.269531 C 109.558594 117.09375 101.96875 107.132812 97.953125 98.664062 C 92.554688 87.296875 87.3125 88.042969 82.242188 88.765625 C 79.632812 89.140625 76.933594 89.535156 73.796875 88.414062 C 68.859375 86.636719 66.664062 83.28125 65.699219 80.625 L 65.917969 80.539062 C 66.050781 80.496094 66.160156 80.40625 66.269531 80.339844 C 66.378906 80.273438 66.488281 80.164062 66.578125 80.078125 C 66.664062 79.988281 66.753906 79.878906 66.839844 79.75 C 66.90625 79.640625 66.972656 79.507812 67.015625 79.375 C 67.058594 79.242188 67.101562 79.113281 67.125 78.980469 C 67.148438 78.847656 67.167969 78.71875 67.167969 78.5625 C 67.167969 78.433594 67.148438 78.300781 67.125 78.167969 C 67.101562 78.039062 67.058594 77.90625 66.992188 77.773438 L 66.050781 75.625 C 66.75 75.054688 67.367188 74.417969 67.914062 73.714844 C 68.464844 73.011719 68.925781 72.222656 69.273438 71.410156 C 71.074219 67.066406 68.75 55.964844 65.917969 52.542969 C 64.625 51.003906 62.671875 50.128906 60.214844 49.972656 C 60.058594 49.6875 59.863281 49.425781 59.621094 49.183594 C 59.378906 48.941406 59.136719 48.746094 58.851562 48.570312 C 58.566406 48.394531 58.261719 48.261719 57.929688 48.175781 C 57.601562 48.085938 57.273438 48.042969 56.945312 48.042969 C 56.789062 48.042969 56.636719 48.042969 56.484375 48.066406 C 56.328125 48.085938 56.175781 48.109375 56.042969 48.152344 C 55.890625 48.195312 55.757812 48.242188 55.605469 48.285156 C 55.472656 48.328125 55.320312 48.394531 55.1875 48.480469 C 55.058594 48.546875 54.925781 48.636719 54.792969 48.722656 C 54.664062 48.8125 54.550781 48.898438 54.441406 49.007812 C 54.332031 49.117188 54.222656 49.226562 54.136719 49.339844 C 54.046875 49.449219 53.9375 49.578125 53.871094 49.710938 C 53.785156 49.84375 53.71875 49.972656 53.652344 50.105469 C 53.585938 50.238281 53.519531 50.390625 53.476562 50.523438 C 53.433594 50.675781 53.390625 50.808594 53.347656 50.960938 C 53.324219 51.113281 53.300781 51.269531 53.28125 51.421875 C 53.257812 51.574219 53.257812 51.730469 53.28125 51.882812 C 53.28125 52.035156 53.300781 52.191406 53.324219 52.34375 C 53.347656 52.496094 53.390625 52.652344 53.433594 52.78125 C 53.476562 52.9375 53.519531 53.066406 53.585938 53.199219 C 53.742188 53.527344 53.917969 53.835938 54.15625 54.121094 C 54.398438 54.40625 54.664062 54.625 54.96875 54.824219 C 55.277344 55.019531 55.605469 55.175781 55.957031 55.261719 C 56.308594 55.351562 56.660156 55.414062 57.03125 55.394531 C 57.40625 55.394531 57.757812 55.328125 58.105469 55.21875 C 58.457031 55.109375 58.789062 54.933594 59.074219 54.734375 C 59.378906 54.515625 59.644531 54.273438 59.863281 53.988281 C 60.082031 53.703125 60.257812 53.375 60.390625 53.046875 C 61.769531 53.175781 62.800781 53.636719 63.484375 54.40625 L 63.546875 54.496094 C 64.558594 55.699219 65.65625 58.816406 66.3125 62.21875 C 66.949219 65.617188 67.015625 68.886719 66.445312 70.25 C 65.414062 72.75 62.582031 74.417969 61.707031 74.898438 C 60.738281 75.230469 57.601562 76.171875 55.078125 75.230469 C 53.695312 74.722656 51.371094 72.484375 49.285156 69.65625 C 47.203125 66.824219 45.6875 63.949219 45.492188 62.371094 C 45.359375 61.316406 45.710938 60.222656 46.585938 59.058594 C 46.71875 59.125 46.871094 59.167969 47.027344 59.191406 C 47.179688 59.234375 47.3125 59.253906 47.464844 59.277344 C 47.617188 59.300781 47.773438 59.300781 47.925781 59.320312 C 48.078125 59.320312 48.234375 59.320312 48.386719 59.300781 C 48.539062 59.277344 48.695312 59.253906 48.824219 59.210938 C 48.980469 59.167969 49.109375 59.125 49.265625 59.078125 C 49.394531 59.035156 49.550781 58.96875 49.679688 58.90625 C 49.8125 58.839844 49.945312 58.75 50.078125 58.664062 C 50.207031 58.574219 50.316406 58.488281 50.425781 58.378906 C 50.539062 58.269531 50.648438 58.179688 50.757812 58.046875 C 50.867188 57.9375 50.953125 57.808594 51.042969 57.699219 C 51.128906 57.566406 51.195312 57.433594 51.285156 57.300781 C 51.347656 57.171875 51.414062 57.039062 51.457031 56.886719 C 51.503906 56.753906 51.546875 56.601562 51.589844 56.445312 C 51.632812 56.292969 51.65625 56.160156 51.65625 56.007812 C 51.679688 55.855469 51.679688 55.699219 51.679688 55.546875 C 51.679688 55.394531 51.65625 55.238281 51.632812 55.085938 C 51.613281 54.933594 51.589844 54.78125 51.546875 54.648438 C 51.503906 54.496094 51.457031 54.363281 51.394531 54.207031 C 51.328125 54.078125 51.261719 53.921875 51.195312 53.792969 C 51.128906 53.660156 51.042969 53.527344 50.953125 53.417969 C 50.867188 53.289062 50.777344 53.175781 50.667969 53.066406 C 50.558594 52.957031 50.449219 52.847656 50.339844 52.761719 C 50.230469 52.671875 50.097656 52.585938 49.964844 52.496094 C 49.835938 52.410156 49.703125 52.34375 49.570312 52.277344 C 49.441406 52.210938 49.285156 52.144531 49.15625 52.101562 C 49 52.058594 48.871094 52.015625 48.714844 51.992188 C 48.5625 51.972656 48.410156 51.949219 48.277344 51.925781 C 48.125 51.90625 47.96875 51.90625 47.816406 51.925781 C 47.664062 51.925781 47.507812 51.949219 47.355469 51.972656 C 47.203125 51.992188 47.046875 52.035156 46.917969 52.082031 C 46.761719 52.125 46.632812 52.167969 46.5 52.234375 C 46.28125 52.320312 46.082031 52.433594 45.886719 52.5625 C 45.6875 52.695312 45.511719 52.847656 45.359375 53.003906 C 45.183594 53.175781 45.050781 53.351562 44.921875 53.527344 C 44.789062 53.703125 44.679688 53.921875 44.589844 54.144531 C 44.503906 54.363281 44.414062 54.582031 44.371094 54.800781 C 44.328125 55.019531 44.285156 55.261719 44.285156 55.480469 C 44.285156 55.722656 44.285156 55.941406 44.328125 56.183594 C 44.371094 56.402344 44.414062 56.644531 44.503906 56.863281 C 42.792969 58.816406 42.113281 60.855469 42.375 62.832031 Z M 42.375 62.832031 "/></g></svg>